<svg width="0" height="0" class="hidden">
  <symbol fill="none" xmlns="http://www.w3.org/2000/svg" viewBox="0 0 32 32" id="html5">
    <path d="M6 28L4 3H28L26 28L16 31L6 28Z" fill="#E44D26"></path>
    <path d="M26 5H16V29.5L24 27L26 5Z" fill="#F16529"></path>
    <path d="M9.5 17.5L8.5 8H24L23.5 11H11.5L12 14.5H23L22 24L16 26L10 24L9.5 19H12.5L13 21.5L16 22.5L19 21.5L19.5 17.5H9.5Z" fill="white"></path>
  </symbol>
  <symbol version="1.1" xmlns="http://www.w3.org/2000/svg" xmlns:xlink="http://www.w3.org/1999/xlink" preserveAspectRatio="xMidYMid" viewBox="0 0 256 256" id="js">
    <g>
      <path d="M0,0 L256,0 L256,256 L0,256 L0,0 Z" fill="#F7DF1E"></path>
      <path d="M67.311746,213.932292 L86.902654,202.076241 C90.6821079,208.777346 94.1202286,214.447137 102.367086,214.447137 C110.272203,214.447137 115.256076,211.354819 115.256076,199.326883 L115.256076,117.528787 L139.313575,117.528787 L139.313575,199.666997 C139.313575,224.58433 124.707759,235.925943 103.3984,235.925943 C84.1532952,235.925943 72.9819429,225.958603 67.3113397,213.93026" fill="#000000"></path>
      <path d="M152.380952,211.354413 L171.969422,200.0128 C177.125994,208.433981 183.827911,214.619835 195.684368,214.619835 C205.652521,214.619835 212.009041,209.635962 212.009041,202.762159 C212.009041,194.513676 205.479416,191.592025 194.481168,186.78207 L188.468419,184.202565 C171.111213,176.81473 159.597308,167.53534 159.597308,147.944838 C159.597308,129.901308 173.344508,116.153295 194.825752,116.153295 C210.119924,116.153295 221.117765,121.48094 229.021663,135.400432 L210.29059,147.428775 C206.166146,140.040127 201.699556,137.119289 194.826159,137.119289 C187.78047,137.119289 183.312254,141.587098 183.312254,147.428775 C183.312254,154.646349 187.78047,157.568406 198.089956,162.036622 L204.103924,164.614095 C224.553448,173.378641 236.067352,182.313448 236.067352,202.418387 C236.067352,224.071924 219.055137,235.927975 196.200432,235.927975 C173.860978,235.927975 159.425829,225.274311 152.381359,211.354413" fill="#000000"></path>
    </g>
  </symbol>
  <symbol fill="none" xmlns="http://www.w3.org/2000/svg" viewBox="0 0 32 32" id="git">
    <path d="M2.58536 17.4132C1.80488 16.6327 1.80488 15.3673 2.58536 14.5868L14.5868 2.58536C15.3673 1.80488 16.6327 1.80488 17.4132 2.58536L29.4146 14.5868C30.1951 15.3673 30.1951 16.6327 29.4146 17.4132L17.4132 29.4146C16.6327 30.1951 15.3673 30.1951 14.5868 29.4146L2.58536 17.4132Z" fill="#EE513B"></path>
    <path d="M12.1489 5.06152L10.9336 6.27686L14.0725 9.41577C13.9455 9.68819 13.8746 9.99201 13.8746 10.3124C13.8746 11.222 14.4461 11.9981 15.2496 12.3012V19.9798C14.4461 20.2829 13.8746 21.059 13.8746 21.9686C13.8746 23.1422 14.826 24.0936 15.9996 24.0936C17.1732 24.0936 18.1246 23.1422 18.1246 21.9686C18.1246 21.144 17.6549 20.429 16.9684 20.0768V12.3117L19.9689 15.3122C19.8481 15.5791 19.7809 15.8754 19.7809 16.1874C19.7809 17.361 20.7323 18.3124 21.9059 18.3124C23.0795 18.3124 24.0309 17.361 24.0309 16.1874C24.0309 15.0138 23.0795 14.0624 21.9059 14.0624C21.6778 14.0624 21.4582 14.0983 21.2522 14.1648L18.0297 10.9423C18.0914 10.7433 18.1246 10.5317 18.1246 10.3124C18.1246 9.13878 17.1732 8.18738 15.9996 8.18738C15.7803 8.18738 15.5688 8.22061 15.3697 8.2823L12.1489 5.06152Z" fill="white"></path>
  </symbol>
  <symbol fill="none" xmlns="http://www.w3.org/2000/svg" viewBox="0 0 32 32" id="css3">
    <path d="M6 28L4 3H28L26 28L16 31L6 28Z" fill="#1172B8"></path>
    <path d="M26 5H16V29.5L24 27L26 5Z" fill="#33AADD"></path>
    <path d="M19.5 17.5H9.5L9 14L17 11.5H9L8.5 8.5H24L23.5 12L17 14.5H23L22 24L16 26L10 24L9.5 19H12.5L13 21.5L16 22.5L19 21.5L19.5 17.5Z" fill="white"></path>
  </symbol>
  <symbol xmlns="http://www.w3.org/2000/svg" viewBox="0 0 24 24" id="mysql">
    <path fill="#00758F" fill-rule="evenodd" d="M5.46192862,4.04007684 C5.18892668,4.03501656 4.99575061,4.06967946 4.79169495,4.11446291 L4.79169495,4.15152944 L4.82901449,4.15152944 C4.95944313,4.41909158 5.18943271,4.591394 5.35034952,4.82188962 C5.47407329,5.08262038 5.59817658,5.34297163 5.72227987,5.60332288 C5.73493056,5.5909252 5.74745474,5.57865403 5.75959941,5.56625635 C5.99047454,5.40394797 6.0957283,5.14410275 6.09471625,4.74737704 C6.00211318,4.64996671 5.98832392,4.52826705 5.90837155,4.4122602 C5.80235875,4.25754224 5.59615247,4.17012595 5.46192862,4.04007684 L5.46192862,4.04007684 Z M23.478665,23.1369293 C23.6543831,23.2658398 23.772161,23.4657208 24,23.5466852 L24,23.5093657 C23.8800714,23.3573044 23.8495833,23.1474294 23.7395222,22.9880306 C23.5786054,22.8271138 23.4164236,22.6655645 23.2555068,22.5040152 C22.7821179,21.8759083 22.1818425,21.3245911 21.5432356,20.8663831 C21.0345512,20.5006515 19.8944709,20.0072745 19.6819392,19.4148426 C19.6697946,19.4021919 19.6571439,19.3896677 19.6444932,19.3770171 C20.0054174,19.3365348 20.4283301,19.2059797 20.7614228,19.1165393 C21.3210894,18.9665021 21.8214243,19.0054662 22.3990549,18.8560615 C22.6600387,18.781296 22.9203899,18.7066569 23.1808677,18.6329033 L23.1808677,18.4834987 C22.8887632,18.1836773 22.6805328,17.7869515 22.3622414,17.5155942 C21.5283078,16.8061434 20.6188495,16.0966926 19.6818127,15.5056522 C19.1626283,15.1774933 18.5200996,14.9645821 17.969415,14.6865199 C17.7842089,14.5931578 17.4590861,14.5444526 17.3365009,14.3887226 C17.0476856,14.0198284 16.8899314,13.5523853 16.6667732,13.1228943 C16.1997097,12.2230506 15.740363,11.2403448 15.3263059,10.293567 C15.044322,9.6481287 14.8597484,9.01154587 14.5076796,8.43227067 C12.8174206,5.65329311 10.9976185,3.97581132 8.17942382,2.3270466 C7.57927498,1.97649592 6.85742648,1.83809735 6.09471625,1.65719245 C5.68546635,1.6325236 5.27545742,1.60734872 4.86620752,1.58267987 C4.61635635,1.47831166 4.35651113,1.17267094 4.12184079,1.02427832 C3.18796669,0.434503045 0.792811133,-0.848656668 0.10157731,0.838313141 C-0.335124586,1.90286889 0.753847001,2.94174374 1.14361483,3.48142227 C1.4172493,3.85980447 1.76704094,4.2842352 1.96287366,4.70967798 C2.09127818,4.98938478 2.11316388,5.27010364 2.22385744,5.56600333 C2.49432924,6.29518923 2.7293791,7.08838764 3.07929725,7.76241652 C3.25653344,8.10322617 3.45173363,8.46263233 3.67539786,8.76738751 C3.81265788,8.95449125 4.04720171,9.03684725 4.08401522,9.32578906 C3.85465817,9.64749617 3.84150145,10.1466925 3.7125909,10.5541713 C3.13065906,12.3887747 3.35014857,14.6686824 4.19660638,16.0266077 C4.45594557,16.443195 5.06773305,17.3374725 5.90837155,16.9942592 C6.64375629,16.6946908 6.47980332,15.76613 6.69018433,14.9469976 C6.73749792,14.760906 6.70865434,14.624405 6.80176344,14.5003017 L6.80176344,14.5373682 C7.02542767,14.9840642 7.2488389,15.4307601 7.47199711,15.8773296 C7.96815726,16.6759678 8.84826592,17.5111665 9.59415073,18.0739958 C9.98037636,18.3659737 10.2848785,18.8709894 10.7852134,19.0419002 L10.7852134,19.0040746 L10.7478939,19.0040746 C10.6504835,18.8536579 10.4989282,18.790531 10.3759635,18.6694638 C10.0844916,18.3836847 9.76050733,18.0287063 9.51938514,17.7014329 C8.84080201,16.780589 8.24153872,15.7725818 7.69553484,14.7235864 C7.43455106,14.2224925 7.20785066,13.6697838 6.98785512,13.1600874 C6.90322199,12.9633691 6.90423404,12.6662043 6.72737736,12.5643663 C6.48650818,12.9378147 6.13190928,13.2401663 5.94556458,13.6811694 C5.64776729,14.386319 5.60943569,15.2461865 5.49899515,16.1379338 C5.43371758,16.1614641 5.46268766,16.1453977 5.42422956,16.1750003 C4.90555118,16.0502645 4.72350772,15.5164053 4.53096418,15.0584502 C4.04378602,13.9006589 3.95333357,12.0360734 4.38206553,10.7030699 C4.4930121,10.3583386 4.99499157,9.27202362 4.79131543,8.95347919 C4.69441112,8.63544079 4.37510765,8.45187925 4.19635337,8.20885945 C3.97420721,7.90853201 3.75332613,7.5134509 3.59974672,7.16644241 C3.20150293,6.26368901 3.01528474,5.25024206 2.59540827,4.33749461 C2.39451528,3.90142525 2.0550972,3.45966308 1.77627595,3.07166635 C1.46759906,2.64204884 1.12185564,2.32578153 0.882884062,1.80583808 C0.797744903,1.62126448 0.681991069,1.32587082 0.808244978,1.13598393 C0.848094658,1.00783242 0.905022773,0.954446496 1.03190922,0.912572704 C1.24810955,0.746089595 1.84889092,0.967982736 2.07394674,1.06147135 C2.67055338,1.30929841 3.16924367,1.54548684 3.67489184,1.88035066 C3.91740561,2.04126747 4.16295554,2.35272751 4.45607208,2.43887872 L4.79118892,2.43887872 C5.31568662,2.5591868 5.90280525,2.47645128 6.39200751,2.62509691 C7.25744137,2.8881048 8.0329288,3.29722819 8.73719284,3.74202653 C10.8826237,5.09653615 12.6370217,7.02526068 13.8370664,9.32578906 C14.030116,9.69620133 14.1138635,10.0496617 14.2836358,10.4427187 C14.6265961,11.2350315 15.0591233,12.0501156 15.4004389,12.825097 C15.7408691,13.5978013 16.0728232,14.3779695 16.5541821,15.0213837 C16.8071959,15.3594102 17.7850944,15.5408211 18.2297663,15.7288104 C18.5412263,15.8602511 19.0514287,15.9976376 19.3460633,16.1750003 C19.9100312,16.5151775 20.4556556,16.9197466 20.9842015,17.292183 C21.2483479,17.4785277 22.0606489,17.886639 22.1006251,18.2223884 C20.7916579,18.1877255 19.7916207,18.3092986 18.9366869,18.6695903 C18.6936671,18.7716814 18.3064295,18.7747176 18.2664533,19.0787137 C18.4000446,19.2186304 18.4211712,19.4281259 18.527437,19.6000488 C18.7309867,19.9304848 19.0755915,20.3728795 19.3833829,20.6053993 C19.7195118,20.8590456 20.0657612,21.130403 20.4255469,21.3498925 C21.0663045,21.7407989 21.7818276,21.9638306 22.3984224,22.3551165 C22.7632683,22.5861182 23.1241926,22.8764515 23.478665,23.1369293 L23.478665,23.1369293 Z"></path>
  </symbol>
  <symbol fill="none" xmlns="http://www.w3.org/2000/svg" viewBox="0 0 32 32" id="node">
    <path d="M17.1725 2.29872C16.4627 1.89953 15.5373 1.90132 14.8269 2.29872C11.2689 4.26227 7.71082 6.22641 4.15216 8.18906C3.45969 8.55335 2.99264 9.29698 3.00009 10.0688V21.9328C2.99509 22.7197 3.48622 23.4705 4.19655 23.8298C5.21871 24.3736 6.2118 24.9726 7.25244 25.4802C8.45451 26.0709 9.95843 26.2015 11.1752 25.5855C12.1629 25.075 12.6016 23.9395 12.6003 22.896C12.6083 18.9806 12.6016 15.0651 12.6034 11.1496C12.6269 10.9756 12.4962 10.7896 12.3064 10.7938C11.8517 10.7866 11.3964 10.7896 10.9417 10.7926C10.7699 10.7764 10.6022 10.9191 10.6152 11.0918C10.6091 14.982 10.6164 18.8734 10.6115 22.7642C10.6214 23.3024 10.2578 23.8196 9.73913 24.0014C8.5412 24.4213 5.12198 22.2012 5.12198 22.2012C4.9965 22.1431 4.91682 22.007 4.92912 21.8718C4.92912 17.9576 4.92973 14.0433 4.92912 10.1297C4.91187 9.97191 5.00912 9.8298 5.15402 9.76538C8.70033 7.8134 12.2448 5.85654 15.7911 3.90336C15.9143 3.82115 16.086 3.8214 16.2089 3.90396C19.7552 5.85654 23.3003 7.81161 26.8472 9.76368C26.9926 9.828 27.0857 9.9725 27.0709 10.1297C27.0703 14.0433 27.0721 17.9576 27.0697 21.8713C27.0802 22.0098 27.0086 22.144 26.8793 22.2048C23.3661 24.1462 19.8129 26.025 16.3315 28.0228C16.1796 28.1099 16.0075 28.2086 15.8373 28.1126C14.9218 27.6062 14.0174 27.0801 13.1049 26.5688C13.0057 26.5069 12.8794 26.4803 12.7759 26.5496C12.3668 26.7652 11.982 26.9398 11.5122 27.1258C10.8524 27.387 10.9578 27.4938 11.5529 27.8405C12.62 28.4444 13.6889 29.0459 14.756 29.6504C15.4585 30.0888 16.4024 30.12 17.1275 29.7149C20.6861 27.7538 24.2436 25.7904 27.8029 23.8293C28.5113 23.468 29.0049 22.7202 28.9999 21.9327V10.0688C29.0068 9.31264 28.5576 8.58227 27.886 8.21259C24.3156 6.23947 20.7435 4.27064 17.1725 2.29872Z" fill="#8CC84B"></path>
    <path d="M22.5419 11.2062C21.1452 10.459 19.4836 10.4192 17.9315 10.5169C16.8102 10.6277 15.6309 10.9371 14.814 11.7409C13.9761 12.5489 13.7937 13.8537 14.1917 14.9085C14.4769 15.6539 15.1948 16.1386 15.9372 16.395C16.8935 16.7326 17.8979 16.837 18.9026 16.9414C19.819 17.0366 20.7357 17.1319 21.6165 17.4042C21.9763 17.5234 22.3953 17.7058 22.5055 18.0973C22.6073 18.5609 22.4957 19.0998 22.1193 19.4219C20.9237 20.3682 17.5979 20.2232 16.4166 19.4784C15.939 19.1611 15.7332 18.5994 15.6495 18.0641C15.6402 17.8973 15.5059 17.7443 15.3248 17.757C14.8713 17.7516 14.4178 17.7528 13.9643 17.7564C13.8061 17.7431 13.6416 17.8557 13.6329 18.0172C13.5397 20.4689 15.7914 21.5377 17.9039 21.773C19.1108 21.888 20.3442 21.8814 21.5327 21.6224C22.4261 21.419 23.3219 21.0444 23.9369 20.3563C24.6953 19.52 24.8444 18.2749 24.5043 17.2332C24.2443 16.4559 23.5012 15.9573 22.7416 15.7008C21.7086 15.3466 20.4844 15.1562 19.5488 15.0671C18.1889 14.9376 16.5729 14.9905 16.188 14.0969C16.0345 13.629 16.1651 13.048 16.5951 12.7602C17.7328 11.9885 20.0483 12.091 21.2265 12.6675C21.7675 12.9384 22.081 13.4948 22.2104 14.0565C22.2344 14.2215 22.3454 14.3937 22.5364 14.3865C22.9868 14.3955 23.4372 14.3889 23.8875 14.3895C24.0422 14.4003 24.2116 14.313 24.2418 14.1546C24.2227 12.9806 23.6232 11.7788 22.5419 11.2062Z" fill="#8CC84B"></path>
  </symbol>
  <symbol xmlns="http://www.w3.org/2000/svg" aria-label="React" role="img" viewBox="0 0 512 512" id="react">
    <rect width="512" height="512" rx="15%" fill="#ffffff"></rect>
    <circle cx="256" cy="256" r="36" fill="#61dafb"></circle>
    <path stroke="#61dafb" stroke-width="18" fill="none" d="M317.47 291.43a71 183 30 1 0-.05.09zm-122.89.09a183 71 60 1 0-.05-.09zm61.47 35.43a183 71 0 1 0-.1 0z"></path>
  </symbol>
  <symbol version="1.1" xmlns="http://www.w3.org/2000/svg" xmlns:xlink="http://www.w3.org/1999/xlink" preserveAspectRatio="xMidYMid" viewBox="0 -51 256 256" id="tailwind">
    <defs>
      <linearGradient x1="-2.77777778%" y1="32%" x2="100%" y2="67.5555556%" id="linearGradient-1">
        <stop stop-color="#2298BD" offset="0%"></stop>
        <stop stop-color="#0ED7B5" offset="100%"></stop>
      </linearGradient>
    </defs>
    <g>
      <path d="M128,-1.0658141e-14 C93.8666667,-1.0658141e-14 72.5333333,17.0666667 64,51.2 C76.8,34.1333333 91.7333333,27.7333333 108.8,32 C118.537481,34.4343704 125.497363,41.4985481 133.201067,49.3184 C145.750756,62.0567704 160.275437,76.8 192,76.8 C226.133333,76.8 247.466667,59.7333333 256,25.6 C243.2,42.6666667 228.266667,49.0666667 211.2,44.8 C201.462519,42.3656296 194.502637,35.3014519 186.798933,27.4816 C174.249244,14.7432296 159.724563,-1.0658141e-14 128,-1.0658141e-14 Z M64,76.8 C29.8666667,76.8 8.53333333,93.8666667 0,128 C12.8,110.933333 27.7333333,104.533333 44.8,108.8 C54.5374815,111.23437 61.497363,118.298548 69.2010667,126.1184 C81.7507556,138.85677 96.275437,153.6 128,153.6 C162.133333,153.6 183.466667,136.533333 192,102.4 C179.2,119.466667 164.266667,125.866667 147.2,121.6 C137.462519,119.16563 130.502637,112.101452 122.798933,104.2816 C110.249244,91.5432296 95.724563,76.8 64,76.8 Z" fill="url(#linearGradient-1)"></path>
    </g>
  </symbol>
  <symbol xmlns="http://www.w3.org/2000/svg" xmlns:xlink="http://www.w3.org/1999/xlink" viewBox="0 0 32 32" id="mongo">
    <defs>
      <linearGradient id="a" x1="-645.732" y1="839.188" x2="-654.59" y2="839.25" gradientTransform="matrix(-0.977, -0.323, -0.29, 0.877, -375.944, -928.287)" gradientUnits="userSpaceOnUse">
        <stop offset="0.231" stop-color="#999875"></stop>
        <stop offset="0.563" stop-color="#9b9977"></stop>
        <stop offset="0.683" stop-color="#a09f7e"></stop>
        <stop offset="0.768" stop-color="#a9a889"></stop>
        <stop offset="0.837" stop-color="#b7b69a"></stop>
        <stop offset="0.896" stop-color="#c9c7b0"></stop>
        <stop offset="0.948" stop-color="#deddcb"></stop>
        <stop offset="0.994" stop-color="#f8f6eb"></stop>
        <stop offset="1" stop-color="#fbf9ef"></stop>
      </linearGradient>
      <linearGradient id="b" x1="-644.287" y1="823.405" x2="-657.028" y2="845.476" gradientTransform="matrix(-0.977, -0.323, -0.29, 0.877, -375.944, -928.287)" gradientUnits="userSpaceOnUse">
        <stop offset="0" stop-color="#48a547"></stop>
        <stop offset="1" stop-color="#3f9143"></stop>
      </linearGradient>
      <linearGradient id="c" x1="-643.386" y1="839.485" x2="-652.418" y2="833.417" gradientTransform="matrix(-0.977, -0.323, -0.29, 0.877, -375.944, -928.287)" gradientUnits="userSpaceOnUse">
        <stop offset="0" stop-color="#41a247"></stop>
        <stop offset="0.352" stop-color="#4ba74b"></stop>
        <stop offset="0.956" stop-color="#67b554"></stop>
        <stop offset="1" stop-color="#69b655"></stop>
      </linearGradient>
    </defs>
    <title>file_type_mongo</title>
    <path d="M16.62,30l-.751-.249s.1-3.8-1.275-4.067c-.9-1.048.133-44.741,3.423-.149a2.712,2.712,0,0,0-1.333,1.523A14.1,14.1,0,0,0,16.62,30Z"></path>
    <path d="M17.026,26.329a13.223,13.223,0,0,0,5-13.225C20.556,6.619,17.075,4.487,16.7,3.673a9.792,9.792,0,0,1-.825-1.6l.277,18.069S15.578,25.664,17.026,26.329Z"></path>
    <path d="M15.487,26.569S9.366,22.4,9.72,15.025A15.54,15.54,0,0,1,15.239,3.377,1.725,1.725,0,0,0,15.846,2c.381.82.319,12.243.359,13.579C16.36,20.776,15.916,25.588,15.487,26.569Z"></path>
  </symbol>
</svg>